<mxfile host="app.diagrams.net" modified="2023-01-31T21:22:05.410Z" agent="5.0 (Windows NT 10.0; Win64; x64) AppleWebKit/537.36 (KHTML, like Gecko) Chrome/107.0.0.0 Safari/537.36 OPR/93.0.0.0" etag="QfM9RK6muZ0eoJ0eUJ9Q" version="20.8.10" type="github" pages="2">
  <diagram id="avTjdI3XWt17EuwbVztM" name="Страница 1">
    <mxGraphModel dx="995" dy="554" grid="1" gridSize="10" guides="1" tooltips="1" connect="1" arrows="1" fold="1" page="1" pageScale="1" pageWidth="827" pageHeight="1169" math="0" shadow="0">
      <root>
        <mxCell id="0" />
        <mxCell id="1" parent="0" />
        <mxCell id="Yxmy-XH-FFGoPvSJOMHm-28" value="Event" style="swimlane;childLayout=stackLayout;horizontal=1;startSize=30;horizontalStack=0;rounded=1;fontSize=14;fontStyle=0;strokeWidth=2;resizeParent=0;resizeLast=1;shadow=0;dashed=0;align=center;" vertex="1" parent="1">
          <mxGeometry x="280" y="150" width="160" height="240" as="geometry" />
        </mxCell>
        <mxCell id="Yxmy-XH-FFGoPvSJOMHm-29" value="  name&#xa;  event &#xa;  time&#xa;  userScore&#xa;  opponentScore?&#xa;  opponentName?&#xa;  competitionPlace?&#xa;  userPhoto?" style="align=left;strokeColor=none;fillColor=none;spacingLeft=4;fontSize=12;verticalAlign=top;resizable=0;rotatable=0;part=1;" vertex="1" parent="Yxmy-XH-FFGoPvSJOMHm-28">
          <mxGeometry y="30" width="160" height="210" as="geometry" />
        </mxCell>
        <mxCell id="Yxmy-XH-FFGoPvSJOMHm-30" value="App" style="swimlane;childLayout=stackLayout;horizontal=1;startSize=30;horizontalStack=0;rounded=1;fontSize=14;fontStyle=0;strokeWidth=2;resizeParent=0;resizeLast=1;shadow=0;dashed=0;align=center;" vertex="1" parent="1">
          <mxGeometry x="90" y="150" width="160" height="120" as="geometry" />
        </mxCell>
        <mxCell id="Yxmy-XH-FFGoPvSJOMHm-31" value="&#xa;" style="align=left;strokeColor=none;fillColor=none;spacingLeft=4;fontSize=12;verticalAlign=top;resizable=0;rotatable=0;part=1;" vertex="1" parent="Yxmy-XH-FFGoPvSJOMHm-30">
          <mxGeometry y="30" width="160" height="90" as="geometry" />
        </mxCell>
        <mxCell id="Yxmy-XH-FFGoPvSJOMHm-32" value="viewer" style="swimlane;childLayout=stackLayout;horizontal=1;startSize=30;horizontalStack=0;rounded=1;fontSize=14;fontStyle=0;strokeWidth=2;resizeParent=0;resizeLast=1;shadow=0;dashed=0;align=center;" vertex="1" parent="1">
          <mxGeometry x="470" y="150" width="160" height="120" as="geometry" />
        </mxCell>
        <mxCell id="Yxmy-XH-FFGoPvSJOMHm-33" value="isAuth&#xa;isCoach" style="align=left;strokeColor=none;fillColor=none;spacingLeft=4;fontSize=12;verticalAlign=top;resizable=0;rotatable=0;part=1;" vertex="1" parent="Yxmy-XH-FFGoPvSJOMHm-32">
          <mxGeometry y="30" width="160" height="90" as="geometry" />
        </mxCell>
        <mxCell id="BVBPbmh-RUTUY3Zr5OIB-1" value="user" style="swimlane;childLayout=stackLayout;horizontal=1;startSize=30;horizontalStack=0;rounded=1;fontSize=14;fontStyle=0;strokeWidth=2;resizeParent=0;resizeLast=1;shadow=0;dashed=0;align=center;" vertex="1" parent="1">
          <mxGeometry x="650" y="150" width="160" height="120" as="geometry" />
        </mxCell>
        <mxCell id="BVBPbmh-RUTUY3Zr5OIB-2" value="id" style="align=left;strokeColor=none;fillColor=none;spacingLeft=4;fontSize=12;verticalAlign=top;resizable=0;rotatable=0;part=1;" vertex="1" parent="BVBPbmh-RUTUY3Zr5OIB-1">
          <mxGeometry y="30" width="160" height="90" as="geometry" />
        </mxCell>
        <mxCell id="BVBPbmh-RUTUY3Zr5OIB-3" value="Newcheck" style="swimlane;childLayout=stackLayout;horizontal=1;startSize=30;horizontalStack=0;rounded=1;fontSize=14;fontStyle=0;strokeWidth=2;resizeParent=0;resizeLast=1;shadow=0;dashed=0;align=center;" vertex="1" parent="1">
          <mxGeometry x="50" y="440" width="160" height="120" as="geometry" />
        </mxCell>
        <mxCell id="BVBPbmh-RUTUY3Zr5OIB-4" value="id" style="align=left;strokeColor=none;fillColor=none;spacingLeft=4;fontSize=12;verticalAlign=top;resizable=0;rotatable=0;part=1;" vertex="1" parent="BVBPbmh-RUTUY3Zr5OIB-3">
          <mxGeometry y="30" width="160" height="90" as="geometry" />
        </mxCell>
      </root>
    </mxGraphModel>
  </diagram>
  <diagram id="CPTK5LQbFcP1y9Y2T7N7" name="Страница 2">
    <mxGraphModel dx="1393" dy="776" grid="1" gridSize="10" guides="1" tooltips="1" connect="1" arrows="1" fold="1" page="1" pageScale="1" pageWidth="827" pageHeight="1169" math="0" shadow="0">
      <root>
        <mxCell id="0" />
        <mxCell id="1" parent="0" />
      </root>
    </mxGraphModel>
  </diagram>
</mxfile>
